<?xml version="1.0" standalone="no"?>
<!DOCTYPE svg PUBLIC "-//W3C//DTD SVG 20010904//EN"
 "http://www.w3.org/TR/2001/REC-SVG-20010904/DTD/svg10.dtd">
<svg version="1.0" xmlns="http://www.w3.org/2000/svg"
 width="50.000000pt" height="50.000000pt" viewBox="0 0 50.000000 50.000000"
 preserveAspectRatio="xMidYMid meet">

<g transform="translate(0.000000,50.000000) scale(0.100000,-0.100000)"
fill="#000000" stroke="none">
<path d="M155 456 c-60 -28 -87 -56 -114 -116 -36 -79 -19 -183 42 -249 33
-36 115 -71 167 -71 52 0 134 35 167 71 34 37 63 110 63 159 0 52 -35 134 -71
167 -37 34 -110 63 -159 63 -27 0 -65 -10 -95 -24z m142 -78 c29 -27 29 -65 1
-95 -27 -29 -65 -29 -95 -1 -29 27 -29 65 -1 95 27 29 65 29 95 1z m33 -161
c0 -5 -8 -16 -17 -22 -17 -12 -17 -14 1 -34 15 -16 17 -24 8 -33 -9 -9 -19 -5
-42 17 l-30 29 -30 -29 c-23 -22 -33 -26 -42 -17 -9 9 -7 17 8 33 18 20 18 22
1 34 -32 23 -17 31 63 31 44 0 80 -4 80 -9z"/>
<path d="M224 346 c-10 -26 4 -48 28 -44 33 4 33 52 0 56 -13 2 -25 -3 -28
-12z"/>
</g>
</svg>
